# Blender 4.3.1
# www.blender.org
mtllib model.mtl
o Cube
v -0.064909 0.994467 0.793934
v -0.064909 2.994467 0.793934
v -0.064909 0.994467 -0.401843
v -0.064909 2.994467 -0.401843
v 0.970880 0.994467 0.793934
v 0.970880 2.994467 0.793934
v 0.970880 0.994467 -0.401843
v 0.970880 2.994467 -0.401843
v -0.064909 0.994467 0.196045
v -0.064909 2.994467 0.196045
v 0.970880 0.994467 0.196045
v 0.970880 2.994467 0.196045
v -0.064909 1.994467 0.793934
v -0.064909 1.994467 -0.401843
v 0.970880 1.994467 -0.401843
v 0.970880 1.994467 0.793934
v 0.970880 1.994467 0.196045
v -0.064909 1.994467 0.196045
v -0.064909 2.494467 0.793934
v -0.064909 2.494467 -0.401843
v 0.970880 2.494467 -0.401843
v 0.970880 2.494467 0.793934
v 0.970880 2.494467 0.196045
v -0.064909 2.494467 0.196045
v -0.064909 2.744467 0.793934
v -0.064909 2.744467 -0.401843
v 0.970880 2.744467 -0.401843
v 0.970880 2.744467 0.793934
v 0.970880 2.744467 0.196045
v -0.064909 2.744467 0.196045
v -0.064909 3.169329 0.464028
v -0.064909 3.169329 -0.071938
v 0.970880 3.169329 0.464028
v 0.970880 3.169329 -0.071938
v -0.064909 3.169329 0.196045
v 0.970880 3.169329 0.196045
v -0.064909 3.227036 0.464028
v -0.064909 3.227036 -0.071938
v 0.970880 3.227036 0.464028
v 0.970880 3.227036 -0.071938
v -0.064909 3.227036 0.196045
v 0.970880 3.227036 0.196045
v -0.064909 2.494467 -1.678925
v 0.970880 2.494467 -1.678925
v -0.064909 2.744467 -1.678925
v 0.970880 2.744467 -1.678925
v -0.064909 2.494467 2.172612
v 0.970880 2.494467 2.172612
v -0.064909 2.744467 2.172612
v 0.970880 2.744467 2.172612
v 0.134612 -0.478815 -0.286674
v 0.771359 -0.478815 -0.286674
v 0.134612 -0.478815 0.080876
v 0.771359 -0.478815 0.080876
v -0.064909 -0.453941 0.652234
v 0.970880 -0.453941 0.652234
v -0.064909 -0.453941 0.337745
v 0.970880 -0.453941 0.337745
vn -1.0000 -0.0000 -0.0000
vn -0.0000 -0.0000 -1.0000
vn 1.0000 -0.0000 -0.0000
vn -0.0000 -0.0000 1.0000
vn -0.0000 -0.0974 -0.9952
vn -0.0000 -0.0779 0.9970
vn -0.0000 0.8836 0.4683
vn -0.0000 0.8836 -0.4683
vn -0.0000 1.0000 -0.0000
vn -0.0000 -1.0000 -0.0000
vn -0.0000 -0.0779 -0.9970
vn 0.9910 -0.1342 -0.0000
vn -0.9910 -0.1342 -0.0000
vn -0.0000 -0.0974 0.9952
vt 0.593750 0.125000
vt 0.625000 0.125000
vt 0.625000 0.250000
vt 0.593750 0.250000
vt 0.625000 0.500000
vt 0.593750 0.500000
vt 0.593750 0.625000
vt 0.625000 0.625000
vt 0.625000 0.750000
vt 0.593750 0.750000
vt 0.625000 1.000000
vt 0.593750 1.000000
vt 0.125000 0.625000
vt 0.375000 0.625000
vt 0.625000 0.000000
vt 0.593750 0.000000
vt 0.375000 0.000000
vt 0.500000 0.000000
vt 0.500000 0.125000
vt 0.375000 0.125000
vt 0.375000 0.500000
vt 0.500000 0.500000
vt 0.500000 0.625000
vt 0.375000 0.750000
vt 0.500000 0.750000
vt 0.500000 1.000000
vt 0.375000 1.000000
vt 0.375000 0.250000
vt 0.500000 0.250000
vt 0.562500 0.000000
vt 0.562500 0.125000
vt 0.562500 0.500000
vt 0.562500 0.625000
vt 0.562500 0.750000
vt 0.562500 1.000000
vt 0.562500 0.250000
vt 0.875000 0.625000
vt 0.875000 0.750000
vt 0.875000 0.500000
vt 0.125000 0.500000
vt 0.125000 0.750000
s 0
f 30/1/1 10/2/1 4/3/1 26/4/1
f 26/4/2 4/3/2 8/5/2 27/6/2
f 29/7/3 12/8/3 6/9/3 28/10/3
f 28/10/4 6/9/4 2/11/4 25/12/4
f 9/13/5 11/14/5 58/14/5 57/13/5
f 10/2/1 2/15/1 31/15/1 35/2/1
f 12/8/3 8/5/3 34/5/3 36/8/3
f 11/14/6 9/13/6 53/13/6 54/14/6
f 27/6/3 8/5/3 12/8/3 29/7/3
f 25/16/1 2/15/1 10/2/1 30/1/1
f 1/17/1 13/18/1 18/19/1 9/20/1
f 7/21/3 15/22/3 17/23/3 11/14/3
f 5/24/4 16/25/4 13/26/4 1/27/4
f 11/14/3 17/23/3 16/25/3 5/24/3
f 3/28/2 14/29/2 15/22/2 7/21/2
f 9/20/1 18/19/1 14/29/1 3/28/1
f 13/18/1 19/30/1 24/31/1 18/19/1
f 15/22/3 21/32/3 23/33/3 17/23/3
f 16/25/4 22/34/4 19/35/4 13/26/4
f 17/23/3 23/33/3 22/34/3 16/25/3
f 14/29/2 20/36/2 21/32/2 15/22/2
f 18/19/1 24/31/1 20/36/1 14/29/1
f 19/30/1 25/16/1 30/1/1 24/31/1
f 21/32/3 27/6/3 29/7/3 23/33/3
f 22/34/3 28/10/3 50/10/3 48/34/3
f 23/33/3 29/7/3 28/10/3 22/34/3
f 20/36/1 26/4/1 45/4/1 43/36/1
f 24/31/1 30/1/1 26/4/1 20/36/1
f 31/11/4 33/9/4 39/9/4 37/11/4
f 36/8/3 34/5/3 40/5/3 42/8/3
f 4/3/1 10/2/1 35/2/1 32/3/1
f 2/11/7 6/9/7 33/9/7 31/11/7
f 8/5/8 4/3/8 32/3/8 34/5/8
f 6/9/3 12/8/3 36/8/3 33/9/3
f 42/8/9 41/37/9 37/38/9 39/9/9
f 40/5/9 38/39/9 41/37/9 42/8/9
f 34/5/2 32/3/2 38/3/2 40/5/2
f 35/2/1 31/15/1 37/15/1 41/2/1
f 33/9/3 36/8/3 42/8/3 39/9/3
f 32/3/1 35/2/1 41/2/1 38/3/1
f 43/36/2 45/4/2 46/6/2 44/32/2
f 21/32/10 20/36/10 43/36/10 44/32/10
f 27/6/3 21/32/3 44/32/3 46/6/3
f 26/4/9 27/6/9 46/6/9 45/4/9
f 48/34/4 50/10/4 49/12/4 47/35/4
f 25/16/1 19/30/1 47/30/1 49/16/1
f 19/35/10 22/34/10 48/34/10 47/35/10
f 28/10/9 25/12/9 49/12/9 50/10/9
f 51/40/10 52/21/10 54/14/10 53/13/10
f 3/28/11 7/21/11 52/21/11 51/28/11
f 7/21/12 11/14/12 54/14/12 52/21/12
f 9/20/13 3/28/13 51/28/13 53/20/13
f 57/13/10 58/14/10 56/24/10 55/41/10
f 1/17/1 9/20/1 57/20/1 55/17/1
f 11/14/3 5/24/3 56/24/3 58/14/3
f 5/24/14 1/27/14 55/27/14 56/24/14
o Cube.001
v 0.005887 3.225603 0.565522
v 0.005887 3.942231 0.565522
v 0.005887 3.225603 -0.173432
v 0.005887 3.942231 -0.173432
v 0.900084 3.225603 0.565522
v 0.900084 3.942231 0.565522
v 0.900084 3.225603 -0.173432
v 0.900084 3.942231 -0.173432
v 0.005887 3.225603 0.196045
v 0.005887 3.942231 0.196045
v 0.900084 3.225603 0.196045
v 0.900084 3.942231 0.196045
v 0.452986 3.225603 -0.173432
v 0.452986 3.942231 -0.173432
v 0.452986 3.225603 0.565522
v 0.452986 3.942231 0.565522
v 0.452986 3.942231 0.196045
v 0.452986 3.225603 0.196045
vn -1.0000 -0.0000 -0.0000
vn -0.0000 -0.0000 -1.0000
vn 1.0000 -0.0000 -0.0000
vn -0.0000 -0.0000 1.0000
vn -0.0000 -1.0000 -0.0000
vn -0.0000 1.0000 -0.0000
vt 0.375000 0.125000
vt 0.625000 0.125000
vt 0.625000 0.250000
vt 0.375000 0.250000
vt 0.375000 0.375000
vt 0.625000 0.375000
vt 0.625000 0.500000
vt 0.375000 0.500000
vt 0.375000 0.625000
vt 0.625000 0.625000
vt 0.625000 0.750000
vt 0.375000 0.750000
vt 0.375000 0.875000
vt 0.625000 0.875000
vt 0.625000 1.000000
vt 0.375000 1.000000
vt 0.250000 0.625000
vt 0.250000 0.750000
vt 0.750000 0.625000
vt 0.875000 0.625000
vt 0.875000 0.750000
vt 0.750000 0.750000
vt 0.750000 0.500000
vt 0.875000 0.500000
vt 0.250000 0.500000
vt 0.375000 0.000000
vt 0.625000 0.000000
vt 0.125000 0.500000
vt 0.125000 0.625000
vt 0.125000 0.750000
s 0
f 67/42/15 68/43/15 62/44/15 61/45/15
f 71/46/16 72/47/16 66/48/16 65/49/16
f 69/50/17 70/51/17 64/52/17 63/53/17
f 73/54/18 74/55/18 60/56/18 59/57/18
f 76/58/19 69/50/19 63/53/19 73/59/19
f 75/60/20 68/61/20 60/62/20 74/63/20
f 72/64/20 62/65/20 68/61/20 75/60/20
f 71/66/19 65/49/19 69/50/19 76/58/19
f 65/49/17 66/48/17 70/51/17 69/50/17
f 59/67/15 60/68/15 68/43/15 67/42/15
f 61/69/19 71/66/19 76/58/19 67/70/19
f 66/48/20 72/64/20 75/60/20 70/51/20
f 70/51/20 75/60/20 74/63/20 64/52/20
f 67/70/19 76/58/19 73/59/19 59/71/19
f 63/53/18 64/52/18 74/55/18 73/54/18
f 61/45/16 62/44/16 72/47/16 71/46/16
